<svg width="24" height="24" viewBox="0 0 24 24" fill="none" xmlns="http://www.w3.org/2000/svg">
<g clip-path="url(#clip0_1427_1582)">
<path d="M12.0001 24C18.2593 24 23.3334 18.9259 23.3334 12.6666C23.3334 6.40742 18.2593 1.33331 12.0001 1.33331C5.74085 1.33331 0.666748 6.40742 0.666748 12.6666C0.666748 18.9259 5.74085 24 12.0001 24Z" fill="#F4900C"/>
<path d="M12.0001 22.6667C18.2593 22.6667 23.3334 17.5926 23.3334 11.3333C23.3334 5.07411 18.2593 0 12.0001 0C5.74085 0 0.666748 5.07411 0.666748 11.3333C0.666748 17.5926 5.74085 22.6667 12.0001 22.6667Z" fill="#FFCC4D"/>
<path d="M12.0001 21.3334C17.1547 21.3334 21.3334 17.1547 21.3334 12C21.3334 6.84536 17.1547 2.66669 12.0001 2.66669C6.84542 2.66669 2.66675 6.84536 2.66675 12C2.66675 17.1547 6.84542 21.3334 12.0001 21.3334Z" fill="#FFE8B6"/>
<path d="M12.0001 20.6667C17.1547 20.6667 21.3334 16.488 21.3334 11.3333C21.3334 6.17868 17.1547 2 12.0001 2C6.84542 2 2.66675 6.17868 2.66675 11.3333C2.66675 16.488 6.84542 20.6667 12.0001 20.6667Z" fill="#FFAC33"/>
<path d="M6.36206 7.23736C6.36206 6.87402 6.71873 6.72869 6.71873 6.72869L11.9707 4.26202L17.2727 6.72869C17.2727 6.72869 17.6381 6.81002 17.6381 7.24002V7.66736H6.36206V7.23736Z" fill="#FFE8B6"/>
<path d="M17.2859 8.55733C17.2859 8.16799 16.9492 7.85266 16.5346 7.85266H7.41923C7.00389 7.85266 6.71456 8.16799 6.71456 8.55733C6.71456 8.82199 6.85056 9.04999 7.06723 9.17066V9.61466H8.47656V9.26199H9.88589V9.61466H11.2952V9.26199H12.7046V9.61466H14.1139V9.26199H15.5232V9.61466H16.9332V9.15266C17.1446 9.02733 17.2859 8.80799 17.2859 8.55733ZM18.3426 16C18.3426 16.1402 18.2869 16.2747 18.1877 16.3738C18.0886 16.473 17.9541 16.5287 17.8139 16.5287H6.18589C6.04568 16.5287 5.91121 16.473 5.81207 16.3738C5.71293 16.2747 5.65723 16.1402 5.65723 16C5.65723 15.8598 5.71293 15.7253 5.81207 15.6262C5.91121 15.527 6.04568 15.4713 6.18589 15.4713H17.8146C18.1059 15.4713 18.3426 15.708 18.3426 16Z" fill="#F4900C"/>
<path d="M17.638 8.13331C17.638 8.22684 17.6008 8.31654 17.5347 8.38268C17.4685 8.44882 17.3788 8.48597 17.2853 8.48597H6.71396C6.62418 8.48045 6.53988 8.44089 6.47826 8.37536C6.41663 8.30983 6.38232 8.22326 6.38232 8.13331C6.38232 8.04335 6.41663 7.95678 6.47826 7.89125C6.53988 7.82572 6.62418 7.78616 6.71396 7.78064L17.2853 7.78264C17.3315 7.78246 17.3773 7.7914 17.42 7.80894C17.4627 7.82647 17.5016 7.85226 17.5344 7.88483C17.5671 7.91741 17.5931 7.95612 17.6109 7.99875C17.6287 8.04139 17.6379 8.08711 17.638 8.13331ZM8.12396 8.54264H15.8766V9.33331H8.12396V8.54264Z" fill="#F4900C"/>
<path d="M8.47592 13.886C8.47592 14.2754 8.26525 14.5907 8.00592 14.5907H7.53592C7.27658 14.5907 7.06592 14.2754 7.06592 13.886V8.54335C7.06592 8.15402 7.27658 7.83868 7.53592 7.83868H8.00592C8.26525 7.83868 8.47592 8.15402 8.47592 8.54335V13.886ZM16.9333 13.886C16.9333 14.2754 16.7233 14.5907 16.4633 14.5907H15.9933C15.7339 14.5907 15.5233 14.2754 15.5233 13.886V8.54335C15.5233 8.15402 15.7333 7.83868 15.9933 7.83868H16.4633C16.7226 7.83868 16.9333 8.15402 16.9333 8.54335V13.886ZM11.2953 13.886C11.2953 14.2754 11.0846 14.5907 10.8253 14.5907H10.3553C10.0959 14.5907 9.88525 14.2754 9.88525 13.886V8.54335C9.88525 8.15402 10.0959 7.83868 10.3553 7.83868H10.8253C11.0846 7.83868 11.2953 8.15402 11.2953 8.54335V13.886ZM14.1139 13.886C14.1139 14.2754 13.9033 14.5907 13.6439 14.5907H13.1746C12.9153 14.5907 12.7046 14.2754 12.7046 13.886V8.54335C12.7046 8.15402 12.9153 7.83868 13.1746 7.83868H13.6439C13.9033 7.83868 14.1139 8.15402 14.1139 8.54335V13.886Z" fill="#FFD983"/>
<path d="M17.2859 14.238C17.2859 14.6273 16.9706 14.9427 16.5813 14.9427H7.41927C7.23238 14.9427 7.05314 14.8684 6.92099 14.7363C6.78884 14.6041 6.7146 14.4249 6.7146 14.238C6.7146 14.0511 6.78884 13.8719 6.92099 13.7397C7.05314 13.6076 7.23238 13.5333 7.41927 13.5333H16.5813C16.9699 13.5333 17.2859 13.8487 17.2859 14.238Z" fill="#FFCC4D"/>
<path d="M18.3426 15.4714C18.3426 15.6116 18.2869 15.746 18.1877 15.8452C18.0886 15.9443 17.9541 16 17.8139 16H6.18589C6.11647 16 6.04772 15.9863 5.98358 15.9598C5.91944 15.9332 5.86116 15.8943 5.81207 15.8452C5.76298 15.7961 5.72404 15.7378 5.69747 15.6737C5.6709 15.6095 5.65723 15.5408 5.65723 15.4714C5.65723 15.4019 5.6709 15.3332 5.69747 15.269C5.72404 15.2049 5.76298 15.1466 5.81207 15.0975C5.86116 15.0484 5.91944 15.0095 5.98358 14.9829C6.04772 14.9564 6.11647 14.9427 6.18589 14.9427H17.8146C18.1059 14.9427 18.3426 15.1794 18.3426 15.4714Z" fill="#FFD983"/>
<path d="M17.2859 8.19069C17.2859 7.80136 16.9493 7.48602 16.5346 7.48602H7.41927C7.00393 7.48602 6.7146 7.80136 6.7146 8.19069C6.7146 8.45536 6.8506 8.68336 7.06727 8.80402V9.24802H8.4766V8.89536H9.88593V9.24802H11.2953V8.89536H12.7046V9.24802H14.1139V8.89536H15.5233V9.24802H16.9333V8.78602C17.1446 8.66069 17.2859 8.44136 17.2859 8.19069Z" fill="#FFCC4D"/>
<path d="M6.36206 7.64202C6.36206 7.27869 6.71873 7.13335 6.71873 7.13335L11.9707 4.66669L17.2727 7.13335C17.2727 7.13335 17.6381 7.21469 17.6381 7.64469V7.83869H6.36206V7.64202Z" fill="#FFD983"/>
<path d="M12 5.56201C12 5.56201 8.36333 7.27601 8.00066 7.43068C7.63733 7.58468 7.75866 7.83801 8.00133 7.83801H15.9813C16.356 7.83801 16.2673 7.55201 15.97 7.39734C15.6727 7.24334 12 5.56201 12 5.56201Z" fill="#FFAC33"/>
<path d="M17.638 7.83802C17.638 7.93155 17.6008 8.02125 17.5347 8.08739C17.4685 8.15353 17.3788 8.19069 17.2853 8.19069H6.71396C6.62418 8.18516 6.53988 8.1456 6.47826 8.08007C6.41663 8.01454 6.38232 7.92797 6.38232 7.83802C6.38232 7.74806 6.41663 7.6615 6.47826 7.59597C6.53988 7.53043 6.62418 7.49087 6.71396 7.48535L17.2853 7.48735C17.3315 7.48718 17.3773 7.49611 17.42 7.51365C17.4627 7.53118 17.5016 7.55698 17.5344 7.58955C17.5671 7.62212 17.5931 7.66083 17.6109 7.70347C17.6287 7.7461 17.6379 7.79182 17.638 7.83802Z" fill="#FFD983"/>
</g>
<defs>
<clipPath id="clip0_1427_1582">
<rect width="24" height="24" fill="white"/>
</clipPath>
</defs>
</svg>
