<svg width="40" height="51" viewBox="0 0 40 51" fill="none" xmlns="http://www.w3.org/2000/svg">
<path d="M18.7352 49.328L32.9749 30.3557H4.49538L18.7352 49.328Z" fill="#FBB83E"/>
<circle cx="19.3676" cy="19.6047" r="17.0751" fill="#FBB83E"/>
<path d="M20 50.909L4.66183 32.82C4.44871 32.5484 4.23779 32.275 4.02911 32C1.40908 28.5487 -0.00632943 24.3331 2.1278e-05 20C2.1278e-05 14.6957 2.10716 9.60858 5.85788 5.85786C9.6086 2.10714 14.6957 0 20 0C25.3043 0 30.3914 2.10714 34.1421 5.85786C37.8928 9.60858 40 14.6957 40 20C40.0063 24.3311 38.5916 28.5448 35.9727 31.9945L35.9709 32C35.9709 32 35.4254 32.7163 35.3436 32.8127L20 50.909ZM6.93274 29.8091C6.93274 29.8091 7.35638 30.3691 7.45274 30.4891L20 45.2872L32.5636 30.4691C32.6436 30.3691 33.0691 29.8054 33.0709 29.8036C35.2112 26.9838 36.3678 23.54 36.3636 20C36.3636 15.6601 34.6396 11.4979 31.5708 8.42915C28.5021 5.36038 24.3399 3.63636 20 3.63636C15.6601 3.63636 11.4979 5.36038 8.42917 8.42915C5.3604 11.4979 3.63638 15.6601 3.63638 20C3.63257 23.5422 4.79052 26.988 6.93274 29.8091Z" fill="#E95A0A"/>
<path d="M19.5245 11.5822C19.6742 11.1215 20.3259 11.1215 20.4756 11.5822L22.1595 16.7649C22.2265 16.9709 22.4185 17.1104 22.6351 17.1104H28.0845C28.5689 17.1104 28.7703 17.7302 28.3784 18.0149L23.9697 21.218C23.7945 21.3454 23.7211 21.571 23.7881 21.777L25.4721 26.9598C25.6217 27.4204 25.0945 27.8035 24.7026 27.5188L20.2939 24.3157C20.1187 24.1884 19.8814 24.1884 19.7061 24.3157L15.2974 27.5188C14.9056 27.8035 14.3783 27.4204 14.528 26.9598L16.212 21.777C16.2789 21.571 16.2056 21.3454 16.0304 21.218L11.6217 18.0149C11.2298 17.7302 11.4312 17.1104 11.9155 17.1104H17.365C17.5816 17.1104 17.7736 16.9709 17.8405 16.7649L19.5245 11.5822Z" fill="#E95A0A"/>
</svg>
