<svg width="32" height="42" viewBox="0 0 32 42" fill="none" xmlns="http://www.w3.org/2000/svg">
<path d="M16 41.125L3.87327 26.8233C3.70476 26.6086 3.53801 26.3925 3.37302 26.175C1.30155 23.4463 0.182496 20.1134 0.187517 16.6875C0.187517 12.4938 1.85347 8.47179 4.81889 5.50637C7.78431 2.54096 11.8063 0.875 16 0.875C20.1938 0.875 24.2157 2.54096 27.1811 5.50637C30.1466 8.47179 31.8125 12.4938 31.8125 16.6875C31.8175 20.1118 30.699 23.4432 28.6285 26.1707L28.627 26.175C28.627 26.175 28.1958 26.7414 28.1311 26.8176L16 41.125ZM5.6687 24.4428C5.6687 24.4428 6.00364 24.8856 6.07983 24.9804L16 36.6803L25.9331 24.9646C25.9964 24.8856 26.3328 24.4399 26.3342 24.4385C28.0264 22.2091 28.9408 19.4864 28.9375 16.6875C28.9375 13.2563 27.5745 9.96556 25.1482 7.53931C22.722 5.11305 19.4313 3.75 16 3.75C12.5688 3.75 9.27807 5.11305 6.85182 7.53931C4.42557 9.96556 3.06252 13.2563 3.06252 16.6875C3.0595 19.4881 3.97501 22.2124 5.6687 24.4428Z" fill="#E95A0A"/>
<path d="M15.5 39L27.1913 24H3.80866L15.5 39Z" fill="#E95A0A"/>
<ellipse cx="16" cy="15.5" rx="14" ry="13.5" fill="#E95A0A"/>
</svg>
