<svg width="12" height="11" viewBox="0 0 12 11" fill="none" xmlns="http://www.w3.org/2000/svg">
<path d="M5.52447 0.410912C5.67415 -0.0497431 6.32585 -0.0497423 6.47553 0.410913L7.45934 3.43878C7.52628 3.64479 7.71826 3.78427 7.93487 3.78427H11.1186C11.6029 3.78427 11.8043 4.40408 11.4124 4.68878L8.83679 6.5601C8.66155 6.68742 8.58822 6.91311 8.65516 7.11912L9.63897 10.147C9.78864 10.6076 9.2614 10.9907 8.86955 10.706L6.29389 8.83468C6.11865 8.70735 5.88135 8.70735 5.70611 8.83468L3.13045 10.706C2.73859 10.9907 2.21136 10.6076 2.36103 10.147L3.34484 7.11912C3.41178 6.91311 3.33845 6.68742 3.16321 6.5601L0.587553 4.68878C0.195696 4.40408 0.397084 3.78427 0.881446 3.78427H4.06513C4.28174 3.78427 4.47372 3.64479 4.54066 3.43878L5.52447 0.410912Z" fill="#FBB83E"/>
</svg>
